Coordinates
version=1
nRows=18
nColumns=22
inDegrees=yes

Units are S.I. units (second, meters, Newtons, ...)
If the header above contains a line with 'inDegrees', this indicates whether rotational values are in degrees (yes) or radians (no).

endheader
time	pelvis_tilt	pelvis_list	pelvis_rotation	pelvis_tx	pelvis_ty	pelvis_tz	hip_flexion_r	hip_adduction_r	hip_rotation_r	knee_angle_r	ankle_angle_r	subtalar_angle_r	hip_flexion_l	hip_adduction_l	hip_rotation_l	knee_angle_l	ankle_angle_l	subtalar_angle_l	lumbar_extension	lumbar_bending	lumbar_rotation
      2.46000000	     -6.15831054	     -0.51581745	    -41.59919384	     -0.24586088	      0.85226610	      0.12844470	    -12.86255206	      4.20418542	      5.28909577	     -7.07870101	     21.61488971	     -5.55042639	     36.71835340	    -11.25892378	      0.23667416	    -20.31550654	      9.49121171	      7.15122583	     -4.42806291	      2.23679365	     23.65079263
      2.47000000	     -6.27880656	     -0.58047072	    -42.04413396	     -0.23622107	      0.85028723	      0.13499591	    -13.38060969	      4.02730928	      5.90263390	     -7.55910319	     21.59328523	     -5.16267620	     36.79262697	    -11.48889076	      0.64490229	    -19.75356804	      9.74403286	      7.25469914	     -4.21864207	      2.24025682	     24.10019433
      2.48000000	     -6.38463740	     -0.60478978	    -42.49383778	     -0.22637052	      0.84845040	      0.14158762	    -13.84480715	      3.78724627	      6.50584104	     -8.11320799	     21.50740854	     -4.50708537	     36.85108044	    -11.67685211	      0.86989026	    -19.55088535	      9.94138389	      7.33402490	     -3.98555271	      2.20445959	     24.53525493
      2.49000000	     -6.49325243	     -0.59553929	    -42.96381406	     -0.21631987	      0.84675390	      0.14823892	    -14.25265842	      3.50722956	      7.15715632	     -8.72462693	     21.30645012	     -3.93008571	     36.90043590	    -11.84409373	      0.88775904	    -19.68986937	     10.09004224	      7.29660405	     -3.71802017	      2.15328138	     24.95745084
      2.50000000	     -6.60165299	     -0.55267915	    -43.43573741	     -0.20604058	      0.84520427	      0.15495447	    -14.60675303	      3.19120181	      7.79949648	     -9.39191068	     20.99609852	     -3.25861088	     36.93155176	    -11.97535001	      0.75047676	    -20.12698545	     10.14192845	      7.20618004	     -3.41171629	      2.07682563	     25.39146966
      2.51000000	     -6.70988750	     -0.46718263	    -43.90410119	     -0.19552065	      0.84379467	      0.16170892	    -14.90712301	      2.83703620	      8.48338861	    -10.09899097	     20.56443989	     -2.67514252	     36.95384870	    -12.06126708	      0.47845903	    -20.82736116	     10.08240328	      7.10711535	     -3.06176909	      1.97811613	     25.76817295
      2.52000000	     -6.81877832	     -0.31649815	    -44.32992007	     -0.18467037	      0.84249651	      0.16844444	    -15.13941452	      2.42926981	      9.09060895	    -10.83529595	     19.96856549	     -1.88961899	     36.99419268	    -12.05499787	      0.17757342	    -21.74891970	      9.86387920	      6.99322575	     -2.64025034	      1.84438499	     26.10669014
      2.53000000	     -6.92095211	     -0.13480916	    -44.72245314	     -0.17357829	      0.84135066	      0.17516469	    -15.30860474	      2.00192050	      9.70675004	    -11.64475127	     19.25983939	     -1.14851509	     37.04116003	    -11.98881282	     -0.11713345	    -22.85852160	      9.49605024	      6.90515222	     -2.19182943	      1.69348870	     26.36740911
      2.54000000	     -7.00836517	      0.08048932	    -45.05970394	     -0.16221894	      0.84036385	      0.18184537	    -15.41480214	      1.55388301	     10.29377051	    -12.53067207	     18.40811365	     -0.35683957	     37.10969394	    -11.84099355	     -0.34166580	    -24.12172531	      8.99295043	      6.82813789	     -1.72013063	      1.51650184	     26.53932033
      2.55000000	     -7.07554224	      0.31244729	    -45.35335456	     -0.15065187	      0.83955987	      0.18851474	    -15.44473144	      1.10444767	     10.86503947	    -13.54361568	     17.41904685	      0.39175880	     37.20450837	    -11.63429144	     -0.49482634	    -25.52284524	      8.42590770	      6.74867767	     -1.24805814	      1.31766320	     26.64596307
      2.56000000	     -7.09598135	      0.56049665	    -45.54149496	     -0.13878895	      0.83899183	      0.19510735	    -15.42308479	      0.64912960	     11.33781897	    -14.67552149	     16.19972706	      1.32383329	     37.28901093	    -11.29862348	     -0.46648562	    -26.96783195	      7.84784015	      6.61592387	     -0.79621697	      1.07720639	     26.59638643
      2.57000000	     -7.08171495	      0.79453484	    -45.68636523	     -0.12679526	      0.83867072	      0.20172322	    -15.30661418	      0.22883807	     11.76358308	    -16.01969716	     14.82095717	      2.15897338	     37.36928184	    -10.92234172	     -0.38477811	    -28.48996575	      7.35876135	      6.41576708	     -0.38833294	      0.81745775	     26.48821374
      2.58000000	     -7.00581680	      0.99448007	    -45.74782666	     -0.11462830	      0.83867804	      0.20832704	    -15.11898803	     -0.14805493	     12.05584533	    -17.58880716	     13.19125464	      3.07696103	     37.35895184	    -10.46151735	     -0.18543649	    -29.97780779	      7.03425794	      6.08717765	     -0.06328605	      0.53179288	     26.25857898
      2.59000000	     -6.88244381	      1.14160871	    -45.75320845	     -0.10237415	      0.83901217	      0.21493804	    -14.81662234	     -0.45523605	     12.19281791	    -19.44948151	     11.32199841	      3.94699807	     37.23645620	     -9.96461853	      0.05570170	    -31.40685405	      6.92200026	      5.64270727	      0.16921344	      0.24531159	     25.95202915
      2.60000000	     -6.72243369	      1.22358879	    -45.71385727	     -0.09008763	      0.83967775	      0.22154124	    -14.36468080	     -0.67805998	     12.14585274	    -21.63951348	      9.20096629	      4.77357892	     36.96416034	     -9.45627091	      0.30911256	    -32.71706864	      7.06621332	      5.08643860	      0.30462287	     -0.02146718	     25.57690188
      2.61000000	     -6.53935742	      1.23512942	    -45.65615859	     -0.07784760	      0.84064571	      0.22813753	    -13.72178368	     -0.81690806	     11.90450726	    -24.18978024	      6.84910495	      5.53177815	     36.52952478	     -8.97766009	      0.51260743	    -33.88637780	      7.49764888	      4.43095120	      0.34581654	     -0.25081051	     25.16235460
      2.62000000	     -6.35559294	      1.19185161	    -45.57525231	     -0.06570858	      0.84183733	      0.23462953	    -12.82417890	     -0.88405294	     11.42559431	    -27.12945804	      4.31551807	      6.07972571	     35.95659134	     -8.53326728	      0.65935320	    -34.88958006	      8.16832592	      3.77527314	      0.31630979	     -0.43147559	     24.70142053
      2.63000000	     -6.17141721	      1.13501400	    -45.49054649	     -0.05373210	      0.84319310	      0.24093187	    -11.61815597	     -0.94529727	     10.71177517	    -30.45859441	      1.65400752	      6.37134103	     35.24851332	     -8.09449222	      0.77401133	    -35.67388743	      8.98904245	      3.21007306	      0.24222836	     -0.58591125	     24.22062941
